<?xml version="1.0" encoding="UTF-8"?>
<!DOCTYPE svg PUBLIC "-//W3C//DTD SVG 1.1//EN" "http://www.w3.org/Graphics/SVG/1.1/DTD/svg11.dtd">
<!-- Creator: CorelDRAW X7 -->
<svg xmlns="http://www.w3.org/2000/svg" xml:space="preserve" width="67.7332mm" height="67.7332mm" version="1.1" style="shape-rendering:geometricPrecision; text-rendering:geometricPrecision; image-rendering:optimizeQuality; fill-rule:evenodd; clip-rule:evenodd"
viewBox="0 0 6773 6773"
 xmlns:xlink="http://www.w3.org/1999/xlink">
 <defs>
  <style type="text/css">
   <![CDATA[
    .str2 {stroke:#96989A;stroke-width:20}
    .str7 {stroke:#605F54;stroke-width:20}
    .str9 {stroke:#FFF212;stroke-width:20}
    .str1 {stroke:#ED3237;stroke-width:20}
    .str8 {stroke:#8B9E93;stroke-width:20}
    .str5 {stroke:#7C4631;stroke-width:20}
    .str6 {stroke:#7C4631;stroke-width:20}
    .str3 {stroke:#373435;stroke-width:7.62}
    .str4 {stroke:#00AFEF;stroke-width:7.62}
    .str0 {stroke:#00A859;stroke-width:20;stroke-linejoin:round}
    .fil7 {fill:none}
    .fil9 {fill:#FEFEFE}
    .fil5 {fill:#96989A}
    .fil6 {fill:#4B4B4D}
    .fil13 {fill:#605F54}
    .fil15 {fill:#FFF212}
    .fil10 {fill:#A45E4D}
    .fil4 {fill:#ED3237}
    .fil14 {fill:#8B9E93}
    .fil12 {fill:#7C4631}
    .fil11 {fill:#9DD3AF}
    .fil0 {fill:#9DD3AF}
    .fil2 {fill:#57A695}
    .fil1 {fill:#48887B}
    .fil8 {fill:#00AFEF}
    .fil3 {fill:#00A859}
   ]]>
  </style>
     <clipPath id="id0">
      <path d="M3168 2722l583 0 -41 406 -583 0 41 -406z"/>
     </clipPath>
 </defs>
 <g id="Layer_x0020_1">
  <metadata id="CorelCorpID_0Corel-Layer"/>
  <g id="_314229784">
   <g>
    <path class="fil0" d="M2850 1621c490,-4 1445,-6 1929,-4 484,2 496,9 513,17 17,9 38,18 54,29 16,10 27,22 39,41 12,20 24,47 32,78 7,31 10,64 11,595 1,531 -1,1560 -2,2082 -2,521 -3,535 -9,553 -6,19 -18,41 -30,57 -13,16 -27,26 -42,36 -15,10 -32,22 -51,30 -19,8 -39,14 -550,17 -511,4 -1513,5 -2015,5 -503,0 -507,-1 -509,-2 -2,-1 -2,-1 -2,-559 1,-558 2,-1675 5,-2240 2,-564 4,-577 7,-592 3,-16 7,-34 14,-51 8,-17 19,-32 32,-44 12,-13 24,-23 43,-31 18,-8 42,-13 531,-17z"/>
    <g>
     <path class="fil1" d="M2221 4905c-4,227 -4,227 -4,227 0,0 0,0 -82,-285 -82,-286 -246,-856 -328,-1141 -82,-286 -82,-286 4,-228 86,58 259,174 345,232 86,58 86,58 82,285 -4,228 -13,682 -17,910z"/>
     <path class="fil0" d="M1676 4242c-5,-9 -5,-9 -59,35 -55,44 -163,132 -217,176 -55,44 -55,44 -55,44 0,0 0,0 146,106 145,105 435,317 581,423 145,106 145,106 145,106 0,0 0,0 -86,-142 -87,-141 -259,-424 -350,-573 -90,-150 -100,-167 -105,-175z"/>
     <path class="fil2" d="M1755 4383c-117,-189 -188,-301 -223,-358 -36,-56 -36,-56 28,-57 63,-2 190,-4 255,-6 65,-1 67,-1 68,0 1,0 1,0 57,196 56,196 169,589 225,785 56,196 56,196 52,190 -4,-7 -13,-21 -98,-159 -85,-139 -248,-403 -364,-591z"/>
    </g>
   </g>
   <path class="fil3 str0" d="M3565 2919l480 0c16,0 30,13 30,30l0 875 -540 0 0 -875c0,-17 13,-30 30,-30z"/>
   <path class="fil4 str1" d="M4126 3158l463 0c17,0 30,14 30,30l0 638 -523 0 0 -638c0,-16 14,-30 30,-30z"/>
   <path class="fil5 str2" d="M3485 3303l-357 0c-16,0 -30,13 -30,30l0 490 417 0 0 -490c0,-17 -14,-30 -30,-30z"/>
   <path class="fil6" d="M3266 3693l101 0c5,0 10,5 10,10l0 130 -121 0 0 -130c0,-5 4,-10 10,-10z"/>
   <path class="fil6" d="M4281 3589l156 0c5,0 10,5 10,10l0 236 -176 0 0 -236c0,-5 4,-10 10,-10z"/>
   <line class="fil7 str3" x1="4357" y1="3836" x2="4357" y2= "3590" />
   <path class="fil8" d="M3623 2985l366 0c11,0 20,9 20,20l0 99 -406 0 0 -99c0,-11 9,-20 20,-20z"/>
   <path class="fil8" d="M3623 3201l366 0c11,0 20,9 20,20l0 99 -406 0 0 -99c0,-11 9,-20 20,-20z"/>
   <path class="fil8" d="M3623 3424l366 0c11,0 20,9 20,20l0 99 -406 0 0 -99c0,-11 9,-20 20,-20z"/>
   <path class="fil6" d="M3767 3693l101 0c6,0 10,5 10,10l0 130 -121 0 0 -130c0,-5 5,-10 10,-10z"/>
   <path class="fil8 str4" d="M4355 3206l21 0c13,0 24,11 24,25l0 69 -70 0 0 -69c0,-14 11,-25 25,-25z"/>
   <g>
    <path class="fil9" d="M4223 3108c-11,-3 -27,4 -53,6 -26,3 -62,1 -91,-12 -30,-13 -53,-36 -70,-59 -17,-23 -27,-45 -31,-69 -3,-25 1,-52 9,-77 7,-25 18,-48 32,-66 14,-17 31,-29 49,-38 18,-10 38,-15 57,-17 18,-1 35,2 44,4 8,1 8,1 8,1 0,0 0,0 0,-5 0,-5 -1,-15 0,-24 2,-10 5,-19 10,-31 5,-11 12,-25 22,-37 9,-12 22,-22 36,-30 15,-8 32,-15 47,-18 15,-3 28,-3 41,-2 13,2 27,5 39,10 13,5 24,12 33,20 9,9 16,18 23,29 8,11 14,23 20,35 5,12 10,25 12,32 2,6 2,6 2,6 0,0 0,0 4,-4 5,-4 14,-12 25,-18 10,-7 23,-12 36,-16 14,-4 29,-6 43,-8 14,-1 29,-2 41,-1 13,1 25,4 38,8 13,4 28,10 42,17 14,7 27,16 40,29 12,14 24,32 31,41 7,10 10,11 14,19 4,8 8,22 10,29 3,7 3,7 3,7 0,0 0,0 0,0 0,0 0,0 5,0 4,0 14,0 24,1 11,1 22,3 35,7 12,4 25,10 36,17 12,8 22,18 31,29 9,12 17,25 21,38 4,14 6,28 6,43 0,14 -1,31 -4,46 -4,16 -10,31 -18,44 -9,13 -21,25 -38,34 -17,9 -38,15 -57,19 -18,3 -33,3 -47,1 -14,-2 -26,-7 -35,-12 -10,-4 -16,-9 -23,-14 -7,-6 -14,-13 -18,-17 -4,-4 -4,-4 -4,-4 0,0 0,0 0,0 0,0 0,0 -5,4 -6,3 -16,10 -29,16 -12,6 -26,10 -41,13 -15,3 -31,4 -45,3 -13,0 -25,-1 -35,-4 -10,-2 -19,-6 -24,-8 -5,-2 -5,-2 -5,-2 0,0 0,0 0,0 0,0 0,0 0,0 0,0 0,0 -4,7 -3,6 -11,18 -21,28 -10,11 -23,19 -38,26 -15,8 -33,14 -50,17 -18,3 -35,3 -50,2 -14,-2 -27,-6 -40,-11 -13,-6 -27,-13 -38,-22 -12,-9 -21,-19 -29,-31 -8,-12 -15,-27 -26,-31z"/>
    <path id="1" class="fil0" d="M4217 3127c-2,0 -8,1 -16,3 -8,1 -18,3 -29,4 -16,2 -34,2 -53,-1l0 0 0 0c-16,-2 -33,-6 -48,-13 -16,-7 -29,-16 -42,-26l-1 -1c-14,-12 -25,-25 -35,-38 -9,-12 -17,-25 -23,-38 -6,-13 -10,-26 -11,-41 -2,-13 -2,-27 -1,-40 2,-15 5,-30 10,-44 4,-14 9,-27 15,-40 6,-12 13,-23 20,-33 8,-10 17,-19 27,-26l1 -1c9,-7 18,-13 28,-17 11,-6 22,-10 32,-13 11,-3 22,-5 32,-6 11,0 21,0 30,1l4 1c0,-3 0,-6 1,-9l0 0 0 0c0,-6 2,-12 4,-18 2,-5 4,-11 7,-18 3,-6 6,-13 10,-20 4,-7 9,-15 14,-21l1 -1c5,-7 11,-13 18,-19l0 0c7,-6 15,-11 24,-16 8,-4 17,-8 25,-12l2 0c8,-3 17,-6 25,-8l0 0c8,-1 16,-2 24,-3 9,0 16,1 23,2l1 0c7,1 15,2 22,4 8,2 15,4 22,7l1 0c7,3 13,6 19,10l0 0 0 0c7,4 13,9 18,14 6,4 10,10 15,15l0 1c4,5 8,10 12,16l0 0c4,6 8,12 12,19 3,6 6,13 9,19l1 1c1,4 3,8 4,12 3,-2 6,-4 9,-6l1 -1c6,-3 13,-7 19,-10 7,-2 14,-5 22,-7 8,-3 15,-4 23,-6 7,-1 15,-2 23,-3 8,0 16,-1 23,-1 8,0 15,0 22,0l0 0 0 0 0 1c7,0 14,1 21,2l0 0 0 0c7,2 14,3 21,6l1 0c7,2 15,5 22,8 8,3 16,7 23,10l1 1m-485 400l0 0m506 -387l2 1c7,6 14,12 20,19 10,11 19,23 27,33l0 2c2,2 4,4 6,7l0 1c3,3 4,5 5,6l0 0 1 0c4,5 6,8 10,15l0 0c2,5 4,11 7,17l2 8c5,0 11,1 17,1l0 0c6,1 12,1 19,3l0 0 0 0c6,1 13,2 20,5 7,2 14,5 21,8l0 0 0 0c7,4 14,8 20,12l1 0c7,5 13,10 19,15l1 1c5,5 11,11 15,17l1 1c5,7 9,13 13,20 4,8 7,15 10,23l0 0c3,8 4,16 5,24 1,8 2,16 2,24 0,9 0,17 -1,25 0,9 -2,17 -4,26l0 0c-2,9 -4,18 -8,27 -3,8 -8,17 -13,24 -5,8 -12,16 -19,22l-1 1c-7,7 -15,12 -25,17 -9,5 -19,9 -29,13l0 0 0 0c-11,3 -22,6 -33,8l-1 0c-10,2 -19,3 -27,3 -9,1 -18,0 -26,-1l0 0 0 0c-8,-2 -16,-4 -23,-6 -7,-3 -13,-5 -18,-8l-1 0c-5,-3 -10,-5 -13,-8l-1 0c-5,-3 -8,-6 -12,-9l-1 -1c-4,-3 -7,-6 -10,-9 -6,3 -15,8 -23,12 -7,3 -15,6 -23,9 -7,2 -15,4 -23,6 -8,1 -16,2 -24,3 -8,0 -17,0 -25,0 -8,0 -15,0 -21,-1 -6,-1 -12,-2 -19,-3l0 0 0 0c-6,-2 -11,-4 -16,-5 -1,2 -2,4 -4,6 -4,6 -9,12 -15,18 -6,6 -13,12 -20,17 -7,5 -15,9 -23,13 -9,4 -18,8 -28,12 -9,3 -18,5 -28,7 -9,2 -18,3 -27,3 -10,0 -19,0 -28,-2 -8,-1 -16,-2 -24,-4 -8,-2 -15,-5 -22,-8 -1,0 -1,0 -2,-1 -7,-3 -14,-6 -20,-10 -7,-4 -14,-8 -20,-13l0 0 0 0c-7,-5 -13,-10 -18,-16 -6,-6 -11,-13 -16,-20 -2,-3 -3,-6 -5,-9 -4,-6 -8,-13 -10,-14l0 0"/>
   </g>
   <path class="fil8 str4" d="M4175 3206l21 0c13,0 24,11 24,25l0 69 -70 0 0 -69c0,-14 11,-25 25,-25z"/>
   <path class="fil8 str4" d="M4535 3206l21 0c13,0 24,11 24,25l0 69 -70 0 0 -69c0,-14 11,-25 25,-25z"/>
   <path class="fil8 str4" d="M4175 3376l21 0c13,0 24,11 24,25l0 69 -70 0 0 -69c0,-14 11,-25 25,-25z"/>
   <path class="fil8 str4" d="M4355 3376l21 0c13,0 24,11 24,25l0 69 -70 0 0 -69c0,-14 11,-25 25,-25z"/>
   <path class="fil8 str4" d="M4535 3376l21 0c13,0 24,11 24,25l0 69 -70 0 0 -69c0,-14 11,-25 25,-25z"/>
   <rect class="fil10" x="3101" y="3265" width="414" height="140"/>
   <g id="_389537936">
    <g style="clip-path:url(#id0)">
     <image x="3127" y="2722" width="623" height="407" xlink:href="municipio_Images\municipio_ImgID1.png"/>
    </g>
   </g>
   <g>
    <path class="fil9" d="M3335 3010c-6,-2 -14,2 -27,3 -13,2 -32,0 -47,-6 -15,-7 -27,-19 -35,-30 -9,-12 -14,-23 -16,-35 -1,-13 1,-27 5,-39 3,-13 9,-25 16,-34 7,-9 16,-15 25,-20 9,-4 19,-7 29,-8 9,0 18,1 22,2 4,1 4,1 4,1 0,0 0,0 0,-3 0,-2 0,-7 1,-12 0,-5 2,-10 5,-16 2,-6 6,-13 11,-19 4,-6 11,-11 18,-15 8,-4 16,-8 24,-9 7,-2 14,-2 21,-1 6,1 13,2 20,5 6,3 12,6 16,10 5,4 9,9 12,15 4,5 7,11 10,18 3,6 5,12 6,16 1,3 1,3 1,3 0,0 0,0 3,-2 2,-2 7,-6 12,-9 6,-4 12,-7 19,-8 7,-2 14,-4 21,-4 8,-1 15,-1 21,-1 7,1 13,2 20,4 6,2 14,5 21,9 7,4 14,8 20,15 6,6 12,16 16,20 4,5 5,6 7,10 2,4 4,11 6,15 1,3 1,3 1,3 0,0 0,0 0,0 0,0 0,0 2,0 3,0 7,0 13,1 5,0 11,1 17,3 6,2 13,5 19,9 6,4 11,9 16,15 4,6 8,13 10,19 2,7 3,14 3,22 0,7 0,16 -2,24 -2,7 -5,15 -9,22 -5,7 -11,13 -19,17 -9,5 -20,8 -29,10 -9,1 -17,2 -24,0 -7,-1 -13,-3 -18,-6 -5,-2 -8,-4 -12,-7 -3,-3 -7,-7 -9,-8 -2,-2 -2,-2 -2,-2 0,0 0,0 0,0 0,0 0,0 -2,1 -3,2 -9,6 -15,9 -6,2 -13,5 -21,6 -8,2 -16,2 -23,2 -7,0 -13,-1 -18,-2 -5,-1 -10,-3 -12,-4 -2,-1 -2,-1 -2,-1 0,0 0,0 0,0 0,0 0,0 0,0 0,0 0,0 -2,3 -2,3 -6,9 -11,15 -6,5 -12,9 -20,13 -7,4 -16,7 -25,8 -9,2 -18,2 -25,1 -8,-1 -14,-3 -21,-5 -7,-3 -13,-7 -19,-11 -6,-5 -11,-10 -15,-16 -4,-7 -7,-14 -13,-16z"/>
    <path id="1" class="fil11" d="M3329 3029c-2,0 -1,1 -3,2 -5,0 -10,2 -16,2 -9,1 -19,1 -30,0 -8,-2 -18,-4 -26,-8 -9,-4 -17,-9 -24,-15 -8,-6 -15,-14 -20,-21l0 0 0 0c-5,-7 -9,-14 -13,-21 -3,-8 -5,-15 -7,-24 -1,-7 0,-15 0,-23l0 0c1,-9 3,-16 5,-24 3,-8 5,-15 9,-21 0,-1 0,-2 1,-2 3,-6 6,-12 10,-17 5,-6 10,-11 15,-15l1 0c5,-4 10,-8 16,-10 6,-3 12,-6 18,-7l1 -1c6,-1 12,-2 17,-3 4,0 7,0 10,0 0,-2 1,-4 1,-6 1,-3 3,-6 4,-10l1 -1c1,-3 3,-6 5,-10 2,-4 5,-8 8,-12l1 -1c3,-4 6,-7 10,-10l1 -1c4,-3 8,-6 12,-9 5,-2 10,-4 15,-6 5,-2 10,-4 15,-5l0 0c4,-1 9,-1 14,-1 5,-1 9,0 13,0l1 0c4,1 8,1 12,3l0 0 0 0c4,1 8,2 12,3l2 1c3,2 7,3 10,6 4,2 8,5 11,7l1 2c3,2 5,5 7,8l1 0c2,3 4,6 6,9 2,3 4,6 6,10 1,2 3,5 4,7 2,-1 4,-2 6,-3 4,-2 8,-3 12,-5l0 0 0 0c4,-1 9,-2 13,-3l1 0c3,0 7,-1 11,-1 5,-1 9,-1 13,-1 4,0 8,0 12,0l0 0c4,1 8,1 12,2 3,1 7,2 12,3l0 0c4,1 8,3 12,4 4,2 8,4 12,6l0 0c4,2 9,5 13,8l0 0 0 0c4,3 8,7 13,11l0 0c5,6 10,13 14,18l0 1 3 3c1,2 2,3 2,3l1 0c2,4 4,5 6,11l0 0c1,2 2,4 3,7l3 0 0 0c3,0 6,1 10,1 4,1 7,2 11,3 4,2 8,3 12,5l1 0 0 0c3,2 7,4 11,7l0 0c4,2 8,5 11,8 3,4 7,7 9,11l1 1c3,4 6,7 8,11 2,4 4,9 5,13l0 0c2,5 3,10 3,14 1,5 1,9 1,14 0,4 0,9 0,13 -1,5 -1,10 -2,15 -1,5 -3,10 -5,15 -2,5 -5,10 -8,14 -3,5 -7,9 -11,13l-1 1c-4,4 -9,7 -14,10 -5,2 -11,5 -16,7l0 0 0 0c-6,2 -13,3 -18,4l-1 0c-6,1 -11,2 -15,2 -6,0 -11,0 -15,-1l0 0 0 0c-5,-1 -10,-2 -14,-3 -3,-2 -7,-3 -10,-5l0 0 0 0c-3,-1 -6,-3 -8,-4 -3,-2 -5,-4 -7,-6l-1 0c-2,0 -4,2 -7,3l0 0 0 0c-3,1 -8,3 -12,5 -5,1 -9,2 -13,3l-1 0m-215 -14l0 0m229 -232c5,2 8,5 11,9m71 63c4,0 7,2 9,4m-118 172c-4,0 -9,0 -13,0 -5,0 -8,0 -12,-1 -3,0 -7,-1 -10,-2l-1 0 0 0 -1 0c-2,2 -5,5 -7,8 -4,3 -7,6 -12,9l0 0c-4,3 -8,6 -13,8 -5,2 -10,4 -15,6 -5,2 -10,3 -16,4 -5,1 -10,2 -15,2l0 0 0 0m0 0l-1 0c-5,0 -10,0 -15,-1 -4,-1 -9,-1 -13,-3l0 0 0 0c-5,-1 -9,-2 -13,-4l-1 -1c-4,-1 -8,-3 -11,-5 -4,-2 -8,-5 -11,-8l0 0 0 0c-4,-2 -8,-5 -11,-9l-1 -1m-8 -10c-1,-2 -2,-3 -3,-5 -1,-2 3,-2 1,-3l0 0"/>
   </g>
   <polyline class="fil7 str5" points="3101,3232 3098,3406 3515,3405 3515,3232 "/>
   <rect class="fil12 str6" x="3407" y="3224" width="30.43" height="105.51"/>
   <rect class="fil13 str7" x="2874" y="3982" width="2019" height="305"/>
   <rect class="fil14 str8" x="2872" y="3838" width="2032" height="151"/>
   <rect class="fil15 str9" x="3044" y="4082" width="350.58" height="72.1"/>
   <rect class="fil15 str9" x="3674" y="4082" width="350.58" height="72.1"/>
   <rect class="fil15 str9" x="4364" y="4082" width="350.58" height="72.1"/>
   <rect class="fil14 str8" x="2862" y="4285" width="2045" height="124"/>
  </g>
 </g>
</svg>
