<?xml version="1.0" encoding="UTF-8"?>
<!DOCTYPE svg PUBLIC "-//W3C//DTD SVG 1.1//EN" "http://www.w3.org/Graphics/SVG/1.1/DTD/svg11.dtd">
<!-- Creator: CorelDRAW X7 -->
<svg xmlns="http://www.w3.org/2000/svg" xml:space="preserve" width="67.7332mm" height="67.7332mm" version="1.1" style="shape-rendering:geometricPrecision; text-rendering:geometricPrecision; image-rendering:optimizeQuality; fill-rule:evenodd; clip-rule:evenodd"
viewBox="0 0 6773 6773"
 xmlns:xlink="http://www.w3.org/1999/xlink">
 <defs>
  <style type="text/css">
   <![CDATA[
    .fil3 {fill:#E6E7E8}
    .fil4 {fill:#96989A}
    .fil2 {fill:#537473}
    .fil1 {fill:#9DD3AF}
    .fil5 {fill:#57A695}
    .fil0 {fill:#48887B}
   ]]>
  </style>
 </defs>
 <g id="Layer_x0020_1">
  <metadata id="CorelCorpID_0Corel-Layer"/>
  <g id="_543139040">
   <path class="fil0" d="M2210 4964c-4,230 -4,230 -4,230 0,0 0,0 -83,-288 -83,-289 -249,-866 -332,-1154 -83,-288 -83,-288 4,-230 88,59 262,176 349,234 87,59 87,59 83,289 -4,230 -13,689 -17,919z"/>
   <path class="fil1" d="M2843 1582c495,-4 1460,-7 1950,-4 489,2 502,9 518,17 17,9 38,19 55,29 16,11 27,22 39,42 12,19 25,48 32,79 8,30 11,64 12,601 0,537 -1,1577 -2,2105 -2,527 -3,541 -10,559 -6,18 -17,41 -30,57 -13,16 -27,26 -42,37 -16,10 -32,21 -51,30 -19,8 -41,14 -557,17 -517,4 -1529,5 -2037,5 -508,0 -512,-1 -514,-2 -2,0 -2,0 -2,-565 1,-564 2,-1693 5,-2264 2,-571 4,-583 7,-599 3,-15 7,-34 14,-51 8,-17 20,-32 32,-45 12,-13 25,-23 44,-31 18,-8 42,-13 537,-17z"/>
   <rect class="fil2" x="2509" y="3228" width="1172" height="330" rx="166" ry="151"/>
   <rect class="fil2" x="3922" y="3817" width="1172" height="182" rx="166" ry="83"/>
   <rect class="fil2" x="2509" y="3817" width="1172" height="182" rx="166" ry="83"/>
   <rect class="fil2" x="2509" y="4212" width="1172" height="182" rx="166" ry="83"/>
   <rect class="fil2" x="3922" y="4212" width="1172" height="182" rx="166" ry="83"/>
   <rect class="fil3" x="4020" y="1965" width="1137" height="182" rx="161" ry="83"/>
   <rect class="fil4" x="2543" y="1823" width="1171" height="1037" rx="91" ry="93"/>
   <path class="fil1" d="M1659 4294c-5,-8 -5,-8 -60,36 -55,44 -165,133 -220,177 -55,45 -55,45 -55,45 0,0 0,0 147,107 147,107 441,321 588,428 147,107 147,107 147,107 0,0 -1,0 -88,-143 -87,-143 -261,-429 -353,-580 -91,-152 -101,-168 -106,-177z"/>
   <path class="fil5" d="M1738 4437c-118,-191 -189,-305 -225,-362 -36,-57 -36,-57 29,-58 64,-1 192,-4 257,-5 66,-2 68,-1 69,-1 1,0 1,0 58,198 57,199 170,596 227,794 57,198 57,198 53,192 -5,-7 -13,-21 -99,-161 -87,-140 -251,-407 -369,-597z"/>
   <rect class="fil2" x="2509" y="4580" width="1172" height="182" rx="166" ry="83"/>
   <rect class="fil2" x="3922" y="4580" width="1172" height="182" rx="166" ry="83"/>
   <rect class="fil2" x="3922" y="3228" width="1172" height="330" rx="166" ry="151"/>
   <g>
    <circle class="fil2" cx="3111" cy="2395" r="162"/>
    <path class="fil2" d="M2773 2775c3,-5 8,-11 13,-19 6,-7 14,-16 21,-24 8,-8 16,-16 24,-23 8,-8 17,-14 28,-22 11,-8 26,-17 38,-23 12,-7 21,-11 33,-16 12,-5 27,-10 41,-14 15,-4 28,-7 42,-10 13,-2 26,-4 39,-5 13,-2 26,-2 40,-3 13,0 28,0 38,0 11,1 18,1 27,3 9,1 21,3 31,5 10,1 18,3 27,5 8,2 18,4 27,7 9,3 18,6 26,9 9,4 18,8 26,12 8,3 15,7 21,10 6,4 12,7 17,10 5,4 9,7 14,11 5,4 11,8 17,13 5,5 11,10 17,15 6,6 12,12 18,19 7,6 13,13 17,18 4,6 7,10 9,13 3,4 5,8 7,10 1,3 2,4 3,5 0,1 0,1 0,15 0,13 0,41 -1,55 0,14 0,14 0,14 0,0 0,0 -110,-1 -111,0 -332,0 -442,0 -111,0 -111,0 -111,0 0,0 0,0 0,-13 -1,-13 -2,-39 -1,-54 0,-15 2,-18 4,-22z"/>
   </g>
  </g>
 </g>
</svg>
