<?xml version="1.0" encoding="UTF-8"?>
<!DOCTYPE svg PUBLIC "-//W3C//DTD SVG 1.1//EN" "http://www.w3.org/Graphics/SVG/1.1/DTD/svg11.dtd">
<!-- Creator: CorelDRAW X7 -->
<svg xmlns="http://www.w3.org/2000/svg" xml:space="preserve" width="67.7332mm" height="67.7332mm" version="1.1" style="shape-rendering:geometricPrecision; text-rendering:geometricPrecision; image-rendering:optimizeQuality; fill-rule:evenodd; clip-rule:evenodd"
viewBox="0 0 6773 6773"
 xmlns:xlink="http://www.w3.org/1999/xlink">
 <defs>
  <style type="text/css">
   <![CDATA[
    .str1 {stroke:#9DD3AF;stroke-width:25}
    .str0 {stroke:#537473;stroke-width:20}
    .fil3 {fill:#537473}
    .fil1 {fill:#9DD3AF}
    .fil2 {fill:#57A695}
    .fil0 {fill:#48887B}
   ]]>
  </style>
 </defs>
 <g id="Layer_x0020_1">
  <metadata id="CorelCorpID_0Corel-Layer"/>
  <g id="_548320624">
   <g>
    <g>
     <path class="fil0" d="M2221 4905c-4,227 -4,227 -4,227 0,0 0,0 -82,-285 -82,-286 -246,-856 -328,-1142 -82,-285 -82,-285 4,-227 86,58 259,174 345,232 86,58 86,58 82,285 -4,228 -13,682 -17,910z"/>
     <path class="fil1" d="M1676 4242c-5,-9 -5,-9 -59,35 -55,44 -163,132 -217,176 -55,44 -55,44 -55,44 0,0 0,0 146,106 145,105 435,317 581,423 145,106 145,106 145,106 0,0 0,0 -86,-142 -87,-141 -259,-424 -350,-573 -90,-150 -100,-167 -105,-175z"/>
     <path class="fil2" d="M1755 4383c-117,-189 -188,-301 -223,-358 -36,-56 -36,-56 28,-57 63,-2 190,-4 255,-6 65,-1 67,-1 68,0 1,0 1,0 57,196 56,196 169,589 225,785 56,196 56,196 52,190 -4,-7 -13,-21 -98,-159 -85,-139 -248,-403 -364,-591z"/>
    </g>
    <path class="fil1" d="M2850 1621c490,-4 1445,-6 1929,-4 484,2 496,9 513,17 17,9 38,18 54,29 16,10 27,22 39,41 12,20 24,47 32,78 7,31 10,64 11,595 1,531 -1,1560 -2,2082 -2,521 -3,535 -9,553 -6,19 -18,41 -30,57 -13,16 -27,26 -42,36 -15,10 -32,22 -51,30 -19,8 -39,14 -550,17 -511,4 -1513,5 -2015,5 -503,0 -507,-1 -509,-2 -2,-1 -2,-1 -2,-559 1,-558 2,-1675 5,-2240 2,-564 4,-577 7,-592 3,-16 7,-34 14,-51 8,-17 19,-32 32,-44 12,-13 24,-23 43,-31 18,-8 42,-13 531,-17z"/>
   </g>
   <g>
    <polygon class="fil3 str0" points="2837,3464 2956,3588 3452,3093 3851,2698 4742,3584 4861,3455 3847,2450 "/>
    <path class="fil3 str0" d="M3159 4311c72,0 208,-1 276,-2 67,0 67,0 67,0 0,0 0,0 0,-80 0,-79 0,-238 1,-322 1,-85 2,-94 8,-111 5,-18 14,-44 24,-66 10,-22 21,-41 35,-59 13,-18 30,-37 48,-54 17,-16 36,-32 57,-44 22,-12 46,-21 70,-28 24,-7 47,-12 65,-14 18,-2 32,-2 50,-2 19,1 42,3 64,8 22,5 43,15 67,26 24,12 50,25 68,37 17,11 26,20 37,31 11,11 23,23 38,40 14,17 31,38 41,59 10,22 13,42 15,55 2,12 4,16 5,102 2,87 4,257 4,342 1,85 1,85 1,85 0,0 0,0 73,-1 72,-1 218,-2 291,-3 72,-1 72,-1 72,-1 0,0 0,0 0,0 0,0 0,0 -1,-112 0,-111 -2,-335 -3,-446 0,-112 0,-112 0,-112 0,0 0,0 -130,-129 -129,-130 -388,-388 -518,-518 -131,-131 -134,-132 -136,-133 -1,-1 -1,-1 -133,130 -132,131 -395,393 -524,523 -129,130 -125,128 -123,128 1,0 0,2 -1,114 -1,112 -1,335 -1,446 0,111 0,111 5,111 5,0 15,0 88,0z"/>
   </g>
   <path class="fil3 str1" d="M4608 3854l-349 0c-70,7 -85,115 3,141l346 0 0 344c0,34 21,56 71,62 44,-3 64,-25 72,-62l-2 -342 351 -4c39,-9 53,-48 54,-71 1,-24 -20,-68 -60,-70l-345 -2 0 -347c-24,-81 -121,-74 -145,0l4 351z"/>
  </g>
 </g>
</svg>
