<?xml version="1.0" encoding="UTF-8"?>
<!DOCTYPE svg PUBLIC "-//W3C//DTD SVG 1.1//EN" "http://www.w3.org/Graphics/SVG/1.1/DTD/svg11.dtd">
<!-- Creator: CorelDRAW X7 -->
<svg xmlns="http://www.w3.org/2000/svg" xml:space="preserve" width="67.7332mm" height="67.7332mm" version="1.1" style="shape-rendering:geometricPrecision; text-rendering:geometricPrecision; image-rendering:optimizeQuality; fill-rule:evenodd; clip-rule:evenodd"
viewBox="0 0 6773 6773"
 xmlns:xlink="http://www.w3.org/1999/xlink">
 <defs>
  <style type="text/css">
   <![CDATA[
    .fil6 {fill:none}
    .fil4 {fill:#E6E7E8}
    .fil3 {fill:#91D8F7}
    .fil2 {fill:#537473}
    .fil1 {fill:#9DD3AF}
    .fil5 {fill:#57A695}
    .fil0 {fill:#48887B}
    .fil7 {fill:#00A859}
   ]]>
  </style>
 </defs>
 <g id="Layer_x0020_1">
  <metadata id="CorelCorpID_0Corel-Layer"/>
  <g id="_547687592">
   <path class="fil0" d="M2223 4927c-5,227 -5,227 -5,227 0,0 0,0 -82,-285 -82,-285 -246,-856 -328,-1141 -82,-286 -82,-286 4,-228 87,58 259,174 346,232 86,58 86,58 82,285 -5,228 -13,683 -17,910z"/>
   <path class="fil1" d="M2850 1624c489,-4 1444,-9 1928,-7 484,1 496,8 513,17 16,8 37,18 53,28 16,11 28,22 39,41 12,20 25,48 32,78 8,31 11,64 12,595 0,532 -1,1561 -3,2082 -1,522 -2,536 -9,554 -6,18 -17,40 -30,56 -12,16 -26,26 -41,36 -16,11 -32,22 -51,30 -19,9 -40,14 -551,18 -511,3 -1512,4 -2015,4 -502,0 -507,-1 -509,-2 -2,0 -2,0 -1,-559 1,-558 2,-1675 4,-2239 2,-565 5,-578 11,-592 5,-13 14,-29 22,-45 8,-16 17,-33 27,-46 10,-14 23,-26 40,-33 18,-8 40,-12 529,-16z"/>
   <rect class="fil2" x="4020" y="2246" width="1159" height="359" rx="164" ry="164"/>
   <rect class="fil3" x="2457" y="2095" width="1143" height="988" rx="88" ry="88"/>
   <rect class="fil4" x="2455" y="3463" width="2722" height="261" rx="385" ry="119"/>
   <rect class="fil4" x="2455" y="3846" width="2722" height="194" rx="385" ry="89"/>
   <rect class="fil4" x="2455" y="4174" width="2722" height="194" rx="385" ry="89"/>
   <rect class="fil4" x="2455" y="4502" width="2722" height="194" rx="385" ry="89"/>
   <path class="fil1" d="M1677 4264c-5,-8 -5,-8 -59,36 -54,43 -163,131 -217,175 -54,44 -54,44 -54,44 0,0 0,0 145,106 145,106 436,318 581,423 145,106 145,106 145,106 0,0 0,0 -86,-141 -86,-142 -258,-424 -349,-574 -91,-150 -101,-167 -106,-175z"/>
   <path class="fil5" d="M1756 4405c-117,-188 -187,-301 -223,-357 -35,-57 -35,-57 28,-58 64,-1 191,-4 255,-5 65,-2 67,-1 68,-1 1,0 1,0 57,196 57,197 169,589 225,785 56,197 56,197 52,190 -4,-7 -12,-20 -98,-159 -85,-139 -247,-403 -364,-591z"/>
   <path class="fil6" d="M3203 2908c54,57 108,114 135,143 28,28 28,28 28,28"/>
   <path class="fil7" d="M2481 2745c24,-17 72,-35 115,-63 42,-27 77,-63 107,-87 30,-24 54,-36 72,-42 19,-7 32,-8 47,-8 16,0 32,2 51,13 19,10 40,29 54,37 13,8 19,6 51,-28 32,-33 92,-97 146,-148 55,-52 105,-90 150,-91 46,-2 87,34 120,65 33,31 57,56 81,79 24,24 48,46 66,64 19,19 32,33 41,43 9,9 14,14 16,17 2,3 2,4 2,69 -1,65 -1,194 -1,263 0,68 -1,77 -5,88 -3,11 -10,24 -21,36 -12,12 -28,25 -41,31 -14,6 -26,6 -176,6 -150,0 -440,-1 -599,-2 -160,0 -189,-1 -212,-3 -22,-2 -38,-6 -50,-14 -12,-8 -19,-21 -25,-30 -5,-10 -9,-17 -11,-22 -2,-6 -2,-9 -3,-15 0,-6 1,-16 1,-26 0,-10 0,-21 0,-28 0,-7 0,-11 0,-36 0,-26 0,-75 0,-106 0,-31 0,-46 24,-62z"/>
  </g>
 </g>
</svg>
