<?xml version="1.0" encoding="UTF-8"?>
<!DOCTYPE svg PUBLIC "-//W3C//DTD SVG 1.1//EN" "http://www.w3.org/Graphics/SVG/1.1/DTD/svg11.dtd">
<!-- Creator: CorelDRAW X7 -->
<svg xmlns="http://www.w3.org/2000/svg" xml:space="preserve" width="67.7332mm" height="67.7332mm" version="1.1" style="shape-rendering:geometricPrecision; text-rendering:geometricPrecision; image-rendering:optimizeQuality; fill-rule:evenodd; clip-rule:evenodd"
viewBox="0 0 6773 6773"
 xmlns:xlink="http://www.w3.org/1999/xlink">
 <defs>
  <style type="text/css">
   <![CDATA[
    .str0 {stroke:#9DD3AF;stroke-width:20}
    .fil4 {fill:#E6E7E8}
    .fil3 {fill:#537473}
    .fil1 {fill:#9DD3AF}
    .fil2 {fill:#57A695}
    .fil0 {fill:#48887B}
   ]]>
  </style>
 </defs>
 <g id="Layer_x0020_1">
  <metadata id="CorelCorpID_0Corel-Layer"/>
  <g id="_551000032">
   <g>
    <path class="fil0" d="M2221 4905c-4,227 -4,227 -4,227 0,0 0,0 -82,-285 -82,-286 -246,-856 -328,-1141 -82,-286 -82,-286 4,-228 86,58 259,174 345,232 86,58 86,58 82,285 -4,228 -13,682 -17,910z"/>
    <path class="fil1" d="M1676 4242c-5,-9 -5,-9 -59,35 -55,44 -163,132 -217,176 -55,44 -55,44 -55,44 0,0 0,0 146,106 145,105 435,317 581,423 145,106 145,106 145,106 0,0 0,0 -86,-142 -87,-141 -259,-424 -350,-573 -90,-150 -100,-167 -105,-175z"/>
    <path class="fil2" d="M1755 4383c-117,-189 -188,-301 -223,-358 -36,-56 -36,-56 28,-57 63,-2 190,-4 255,-6 65,-1 67,-1 68,0 1,0 1,0 57,196 56,196 169,589 225,785 56,196 56,196 52,190 -4,-7 -13,-21 -98,-159 -85,-139 -248,-403 -364,-591z"/>
   </g>
   <path class="fil1" d="M2850 1621c490,-4 1445,-6 1929,-4 484,2 496,9 513,17 17,9 38,18 54,29 16,10 27,22 39,41 12,20 24,47 32,78 7,31 10,64 11,595 1,531 -1,1561 -2,2082 -2,521 -3,535 -9,553 -6,19 -18,41 -30,57 -13,16 -27,26 -42,36 -15,10 -32,22 -51,30 -19,8 -39,14 -550,17 -511,4 -1513,5 -2015,5 -503,0 -507,-1 -509,-2 -2,-1 -2,-1 -2,-559 1,-558 2,-1675 5,-2240 2,-564 4,-577 7,-592 3,-16 7,-34 14,-51 8,-17 19,-32 32,-44 12,-13 24,-23 43,-31 18,-8 42,-13 531,-17z"/>
   <g>
    <circle class="fil3" cx="3840" cy="3068" r="330"/>
    <path class="fil3" d="M3153 3839c6,-10 15,-22 27,-37 11,-15 27,-33 42,-50 16,-16 33,-32 49,-47 17,-15 33,-29 56,-45 23,-15 53,-33 77,-47 25,-13 44,-22 68,-32 25,-10 55,-21 84,-29 29,-8 57,-14 84,-19 28,-5 55,-9 81,-11 26,-3 52,-4 80,-5 27,-1 57,-1 79,0 21,1 35,2 54,5 19,2 42,6 63,10 20,3 36,7 54,11 18,4 37,8 55,14 19,5 36,12 55,19 18,7 36,15 52,23 16,7 30,15 43,22 12,7 23,13 34,20 10,7 19,14 29,22 10,8 22,17 33,26 12,10 24,20 36,32 12,11 24,24 37,37 12,13 25,27 34,38 9,11 14,19 19,26 5,8 9,15 13,20 3,5 5,9 6,10 1,2 1,2 1,30 -1,28 -1,84 -2,112 0,28 0,28 0,28 0,0 0,0 -225,0 -225,-1 -675,-1 -899,-2 -225,0 -225,0 -225,0 0,0 0,0 -1,-26 -1,-27 -3,-80 -2,-109 0,-30 4,-37 9,-46z"/>
   </g>
   <path class="fil3 str0" d="M3786 3868c18,-17 48,-44 63,-58 15,-14 15,-14 56,29 42,44 125,131 167,174 41,44 41,44 41,44 0,0 0,0 107,-101 106,-100 319,-301 426,-401 106,-100 106,-100 106,-100 0,0 0,0 15,17 14,16 44,50 58,67 15,17 15,17 15,17 0,0 0,0 -123,117 -122,118 -367,353 -490,470 -122,118 -122,118 -122,118 0,0 0,0 0,0 0,0 0,0 0,0 0,0 0,0 -58,-60 -58,-59 -174,-178 -232,-239 -58,-62 -58,-65 -55,-69 3,-4 8,-9 26,-25z"/>
   <rect class="fil4" x="2857" y="2139" width="2023" height="163" rx="287" ry="75"/>
  </g>
 </g>
</svg>
