<?xml version="1.0" encoding="UTF-8"?>
<!DOCTYPE svg PUBLIC "-//W3C//DTD SVG 1.1//EN" "http://www.w3.org/Graphics/SVG/1.1/DTD/svg11.dtd">
<!-- Creator: CorelDRAW X7 -->
<svg xmlns="http://www.w3.org/2000/svg" xml:space="preserve" width="67.7332mm" height="67.7332mm" version="1.1" style="shape-rendering:geometricPrecision; text-rendering:geometricPrecision; image-rendering:optimizeQuality; fill-rule:evenodd; clip-rule:evenodd"
viewBox="0 0 6773 6773"
 xmlns:xlink="http://www.w3.org/1999/xlink">
 <defs>
  <style type="text/css">
   <![CDATA[
    .str0 {stroke:#9DD3AF;stroke-width:25;stroke-linejoin:round}
    .fil5 {fill:#E6E7E8}
    .fil6 {fill:#96989A}
    .fil3 {fill:#605F54}
    .fil4 {fill:#537473}
    .fil1 {fill:#9DD3AF}
    .fil2 {fill:#57A695}
    .fil0 {fill:#48887B}
   ]]>
  </style>
    <clipPath id="id0">
     <rect x="2885" y="2446" width="1897" height="1897"/>
    </clipPath>
 </defs>
 <g id="Layer_x0020_1">
  <metadata id="CorelCorpID_0Corel-Layer"/>
  <g id="_547656776">
   <g>
    <g>
     <path class="fil0" d="M2221 4905c-4,227 -4,227 -4,227 0,0 0,0 -82,-285 -82,-286 -246,-856 -328,-1142 -82,-285 -82,-285 4,-227 86,58 259,174 345,232 86,58 86,58 82,285 -4,228 -13,682 -17,910z"/>
     <path class="fil1" d="M1676 4242c-5,-9 -5,-9 -59,35 -55,44 -163,132 -217,176 -55,44 -55,44 -55,44 0,0 0,0 146,106 145,105 435,317 581,423 145,106 145,106 145,106 0,0 0,0 -86,-142 -87,-141 -259,-424 -350,-573 -90,-150 -100,-167 -105,-175z"/>
     <path class="fil2" d="M1755 4383c-117,-189 -188,-301 -223,-358 -36,-56 -36,-56 28,-57 63,-2 190,-4 255,-6 65,-1 67,-1 68,0 1,0 1,0 57,196 56,196 169,589 225,785 56,196 56,196 52,190 -4,-7 -13,-21 -98,-159 -85,-139 -248,-403 -364,-591z"/>
    </g>
    <path class="fil1" d="M2850 1621c490,-4 1445,-6 1929,-4 484,2 496,9 513,17 17,9 38,18 54,29 16,10 27,22 39,41 12,19 24,47 32,78 7,31 10,64 11,595 1,531 -1,1560 -2,2082 -2,521 -3,535 -9,553 -6,19 -18,41 -30,57 -13,16 -27,26 -42,36 -15,10 -32,22 -51,30 -19,8 -39,14 -550,17 -511,4 -1513,5 -2015,5 -503,0 -507,-1 -509,-2 -2,-1 -2,-1 -2,-559 1,-558 2,-1675 5,-2240 2,-564 4,-577 7,-592 3,-16 7,-34 14,-51 8,-17 19,-32 32,-44 12,-13 24,-23 43,-31 18,-8 42,-13 531,-17z"/>
   </g>
   <g style="clip-path:url(#id0)">
    <image x="2885" y="2446" width="1897" height="1897" xlink:href="criança_Images\criança_ImgID1.png"/>
   </g>
   <path class="fil3 str0" d="M4436 3617c122,-2 360,-5 481,-5 121,0 124,1 128,3 4,2 10,5 14,7 4,3 6,6 9,11 3,4 7,11 9,19 2,8 2,16 3,149 2,132 3,389 4,519 0,130 0,134 -2,138 -1,5 -4,11 -7,15 -3,4 -6,6 -10,9 -4,2 -8,5 -13,7 -5,2 -10,4 -137,6 -128,1 -378,4 -503,4 -126,1 -127,1 -127,1 -1,0 -1,0 -2,-140 -1,-139 -2,-418 -3,-559 0,-141 0,-144 1,-148 1,-4 2,-8 3,-12 2,-5 5,-8 8,-12 3,-3 6,-5 11,-7 4,-2 10,-4 133,-5z"/>
   <rect class="fil4" transform="matrix(0.315299 -0.00228878 0.00208098 0.286673 4356.21 4023.65)" width="918" height="284" rx="130" ry="130"/>
   <rect class="fil4" transform="matrix(0.315299 -0.00228878 0.00114439 0.157649 4706.12 4166.48)" width="918" height="284" rx="130" ry="130"/>
   <rect class="fil4" transform="matrix(0.315299 -0.00228878 0.00114439 0.157649 4357.26 4169.01)" width="918" height="284" rx="130" ry="130"/>
   <rect class="fil4" transform="matrix(0.315299 -0.00228878 0.00114439 0.157649 4357.97 4266.69)" width="918" height="284" rx="130" ry="130"/>
   <rect class="fil4" transform="matrix(0.315299 -0.00228878 0.00114439 0.157649 4706.82 4264.15)" width="918" height="284" rx="130" ry="130"/>
   <rect class="fil5" transform="matrix(0.305916 -0.00222067 0.00114439 0.157649 4726.96 3709.01)" width="918" height="284" rx="130" ry="130"/>
   <rect class="fil6" transform="matrix(0.319799 -0.00232144 0.00237762 0.327537 4362.06 3676.62)" width="905" height="782" rx="70" ry="70"/>
   <rect class="fil4" transform="matrix(0.315299 -0.00228878 0.00114439 0.157649 4358.63 4357.39)" width="918" height="284" rx="130" ry="130"/>
   <rect class="fil4" transform="matrix(0.315299 -0.00228878 0.00114439 0.157649 4707.48 4354.86)" width="918" height="284" rx="130" ry="130"/>
   <rect class="fil4" transform="matrix(0.315299 -0.00228878 0.00208098 0.286673 4705.06 4021.12)" width="918" height="284" rx="130" ry="130"/>
   <g>
    <circle class="fil4" transform="matrix(0.0534393 -0.00038792 0.00038792 0.0534393 4503.28 3816.94)" r="749"/>
    <path class="fil4" d="M4421 3911c0,-1 1,-3 3,-4 1,-2 3,-4 5,-6 2,-2 4,-4 6,-6 2,-2 4,-4 7,-6 2,-2 6,-4 9,-5 3,-2 5,-3 8,-4 3,-2 7,-3 10,-4 4,-1 7,-2 10,-2 4,-1 7,-2 10,-2 3,0 6,0 10,0 3,-1 7,-1 9,-1 3,0 5,1 7,1 2,0 5,1 8,1 2,1 4,1 6,1 2,1 5,1 7,2 2,1 4,2 7,2 2,1 4,2 6,3 2,1 4,2 5,3 2,1 3,1 4,2 2,1 3,2 4,3 1,1 3,2 4,3 1,1 3,2 4,4 2,1 3,3 5,4 1,2 3,3 4,5 1,1 2,2 2,3 1,1 1,2 2,2 0,1 1,1 1,2 0,0 0,0 0,3 0,4 0,10 0,14 0,3 0,3 0,3 0,0 0,0 -28,0 -27,1 -81,1 -109,1 -27,0 -27,0 -27,0 0,0 0,0 0,-3 0,-3 -1,-10 -1,-13 1,-4 1,-5 2,-6z"/>
   </g>
  </g>
 </g>
</svg>
